PathFileType	4	(X/Y/Z)	Walk2.trc
DataRate	CameraRate	NumFrames	NumMarkers	Units	OrigDataRate	OrigDataStartFrame	OrigNumFrames
200.000000	200.000000	7	68	mm	200.000000	779	862
Frame#	Times		LFHD		LowerBodyModelVer		RCAR		RWRU		LElbow		LTH2		RACR1		RUA1		RASI		RFA1		LACR1		LTH4		LTB1		LLFC		RTH2		LMT5		LUA1		LTB4		LTB3		LTB2		LToe		LMT1		RTH4		LASI		PELOrigin		LLMAL		RBHD		STRN		RLFC		CLAV		RTH3		LFA1		LWRU		RBack		LPSI		RMT1		RMT5		LCAR		RTH1		RTB2		RCAL		LTH1		C7		RLMAL		RFHD		LBHD		RToe		RPSI		LHJC		MidPelvis		OPelvis		RHJC		SACR		XPelvis		YPelvis		ZPelvis		LWRR		RTB1		RTB3		RTB4		RMMAL		RWRR		RElbow		LTH3		LMMAL		T10		LCAL		LElbowM
			X1	Y1	Z1	X2	Y2	Z2	X3	Y3	Z3	X4	Y4	Z4	X5	Y5	Z5	X6	Y6	Z6	X7	Y7	Z7	X8	Y8	Z8	X9	Y9	Z9	X10	Y10	Z10	X11	Y11	Z11	X12	Y12	Z12	X13	Y13	Z13	X14	Y14	Z14	X15	Y15	Z15	X16	Y16	Z16	X17	Y17	Z17	X18	Y18	Z18	X19	Y19	Z19	X20	Y20	Z20	X21	Y21	Z21	X22	Y22	Z22	X23	Y23	Z23	X24	Y24	Z24	X25	Y25	Z25	X26	Y26	Z26	X27	Y27	Z27	X28	Y28	Z28	X29	Y29	Z29	X30	Y30	Z30	X31	Y31	Z31	X32	Y32	Z32	X33	Y33	Z33	X34	Y34	Z34	X35	Y35	Z35	X36	Y36	Z36	X37	Y37	Z37	X38	Y38	Z38	X39	Y39	Z39	X40	Y40	Z40	X41	Y41	Z41	X42	Y42	Z42	X43	Y43	Z43	X44	Y44	Z44	X45	Y45	Z45	X46	Y46	Z46	X47	Y47	Z47	X48	Y48	Z48	X49	Y49	Z49	X50	Y50	Z50	X51	Y51	Z51	X52	Y52	Z52	X53	Y53	Z53	X54	Y54	Z54	X55	Y55	Z55	X56	Y56	Z56	X57	Y57	Z57	X58	Y58	Z58	X59	Y59	Z59	X60	Y60	Z60	X61	Y61	Z61	X62	Y62	Z62	X63	Y63	Z63	X64	Y64	Z64	X65	Y65	Z65	X66	Y66	Z66	X67	Y67	Z67	X68	Y68	Z68

779	3.895	636.47	1570.5	-17.147	9	2014	4	539.44	791.55	389.55	495.35	842.71	397.42	402.88	1073.1	-250.19	667.64	662.91	-124.11	513.84	1371.2	205.38	478.96	1230.2	296.7	586.82	945.77	207.51	509.18	948.8	364.89	522.9	1349.5	-152.96	620.92	646.53	-158.67	662.04	337.34	-7.3351	630.07	489.29	-111.44	537.09	612.58	227.92	731.54	26.69	-87.762	483.09	1204.6	-225.11	653.58	252.37	-14.02	651.99	166.69	-17.663	658.56	256.36	-75.77	787.87	31.122	4.9947	745.9	35.927	3.5287	479.11	620.3	242.58	608.03	953.5	-137.4	597.43	949.63	35.056	613.82	69.674	-82.405	471.69	1559.9	97.792	656.34	1212.6	40.001	450.19	446.21	219.27	592.65	1330.7	29.854	466.3	535.29	227.66	415.17	941.81	-288.77	349.91	839.69	-313.58	373.14	1307	133.32	366.43	973.32	-76.8	291.26	41.589	103.7	271.59	32.258	190.15	367.85	782.1	-318.47	504.48	699.65	255.33	365.45	279.93	204	142.18	140.89	143.03	611.04	727.66	-183.87	431.06	1407.2	36.553	203.07	137.37	190.65	627.8	1576.9	77.457	484.07	1550.8	-37.357	328.89	27.78	112.17	341.83	970.92	56.548	515.4	849.2	-90.015	475.78	960.88	12.465	597.43	949.63	35.056	500.97	843.94	144.53	354.13	972.12	-10.126	676.97	942.56	39.79	604.38	1029.3	37.269	592.52	947.85	114.88	407	819.12	-269.02	442.26	323.33	143.68	303.5	202.69	120.44	372.88	263.01	132.06	228.79	137.73	107.92	541.76	845.72	339.27	437.77	1071.6	343.17	633.02	563.36	-130.48	620.59	72.831	1.6191	376.66	1075.9	18.88	557.38	29.902	-44.478	408.93	1034.6	-147.49
780	3.9	641.2	1571.1	-18.37	9	2014	4	540.55	791.9	387.65	496.85	843.43	395.61	408.71	1073.3	-251.07	671.03	663.01	-125.31	517.99	1372.4	204.03	482.52	1231.5	295.44	591.51	947.52	206.4	511.37	949.51	363.14	527.56	1350.3	-154.07	624.02	647	-159.72	663.63	337.26	-8.3359	631.87	489.4	-112.35	544.29	613.61	228.66	731.55	26.668	-87.935	488.6	1205.1	-226.05	654.53	252.36	-14.743	652.42	166.65	-18.073	659.37	256.15	-76.52	787.84	31.174	4.8606	745.83	36.022	3.4065	486.18	620.82	243.21	612.56	954.81	-138.24	602.03	951.16	34.079	613.87	69.624	-82.66	476.21	1560.9	96.32	660.69	1213.8	38.549	459.24	446.62	220.58	596.98	1331.7	28.666	474.42	535.51	228.56	421.43	941.89	-289.17	356.55	839.55	-314.05	377.31	1308.2	131.99	370.89	974.03	-77.036	293.57	42.626	104.14	273.96	33.91	190.29	374.54	781.91	-318.52	510.37	700.56	255.59	372.63	281.54	205.14	147.82	146.88	143.49	614.78	728.22	-184.91	435.33	1408	35.153	208.4	141.51	191.21	632.39	1577.6	76.206	488.8	1551.6	-38.789	330.43	27.798	112.56	346.3	971.41	56.207	520.38	850.34	-90.705	480.31	961.94	11.832	602.03	951.16	34.079	506.06	845.39	143.65	358.59	972.72	-10.414	681.61	944.37	38.797	608.71	1030.9	36.172	597.16	949.48	113.91	413.19	819.22	-268.95	450.31	323.62	145.05	309.89	205.16	121.38	380.1	264.39	133.22	234.28	141.37	108.64	543.33	846.19	337.48	440.69	1072.8	341.45	635.53	563.75	-131.58	620.6	73.038	1.3639	381.08	1076.6	18.236	557.35	29.903	-44.709	414.33	1035.2	-148.24
781	3.905	645.91	1571.7	-19.56	9	2014	4	541.65	792.24	385.7	498.33	844.17	393.79	414.56	1073.5	-251.96	674.24	663.08	-126.55	522.06	1373.6	202.71	486.07	1232.8	294.22	596.14	949.28	205.4	513.55	950.24	361.39	532.18	1351	-155.16	626.94	647.41	-160.76	665.11	337.19	-9.3609	633.37	489.49	-113.27	551.52	614.69	229.41	731.55	26.649	-88.091	494.13	1205.5	-226.99	655.41	252.35	-15.487	652.82	166.61	-18.5	660.04	255.95	-77.293	787.8	31.255	4.7277	745.75	36.123	3.2859	493.28	621.35	243.87	617.06	956.12	-139.03	606.6	952.7	33.186	613.89	69.568	-82.902	480.73	1561.8	94.887	665.02	1215	37.14	468.4	447.05	221.87	601.28	1332.6	27.508	482.61	535.74	229.49	427.79	942	-289.58	363.35	839.39	-314.56	381.44	1309.3	130.63	375.31	974.76	-77.246	296.34	43.802	104.7	276.76	35.793	190.54	381.41	781.72	-318.58	516.26	701.48	255.89	379.95	283.19	206.22	153.75	152.72	143.9	618.31	728.67	-186.03	439.54	1408.8	33.756	214	145.65	191.71	636.96	1578.3	74.989	493.51	1552.4	-40.182	332.42	27.853	113.12	350.74	971.9	55.895	525.31	851.47	-91.344	484.81	963.02	11.255	606.6	952.7	33.186	511.08	846.82	142.87	363.03	973.33	-10.676	686.2	946.2	37.89	613	1032.4	35.158	601.75	951.11	113.02	419.5	819.34	-268.89	458.49	323.98	146.43	316.49	207.62	122.3	387.49	265.8	134.36	240.03	144.97	109.3	544.87	846.67	335.65	443.59	1074	339.75	637.88	564.1	-132.6	620.6	73.236	1.1349	385.48	1077.3	17.626	557.3	29.896	-44.924	419.69	1035.8	-149
782	3.91	650.61	1572.3	-20.715	9	2014	4	542.72	792.59	383.69	499.8	844.92	391.97	420.42	1073.7	-252.87	677.28	663.1	-127.81	526.07	1374.8	201.41	489.6	1234.2	293.06	600.72	951.03	204.53	515.7	950.98	359.65	536.76	1351.8	-156.21	629.67	647.73	-161.76	666.48	337.13	-10.387	634.62	489.56	-114.19	558.76	615.81	230.18	731.53	26.633	-88.229	499.67	1206	-227.92	656.23	252.35	-16.238	653.2	166.58	-18.934	660.59	255.76	-78.071	787.74	31.353	4.5983	745.66	36.223	3.1698	500.39	621.89	244.56	621.53	957.43	-139.77	611.12	954.23	32.382	613.89	69.511	-83.126	485.23	1562.7	93.497	669.33	1216.3	35.776	477.62	447.52	223.13	605.56	1333.6	26.384	490.85	536	230.43	434.22	942.12	-290.02	370.29	839.22	-315.1	385.54	1310.4	129.26	379.7	975.49	-77.437	299.63	45.114	105.41	280.01	37.895	190.92	388.46	781.52	-318.68	522.14	702.41	256.23	387.4	284.88	207.25	159.95	158.36	144.25	621.65	729.01	-187.19	443.72	1409.6	32.362	219.87	149.76	192.16	641.52	1578.9	73.806	498.21	1553.3	-41.534	334.93	27.96	113.9	355.17	972.39	55.607	530.18	852.58	-91.931	489.28	964.08	10.733	611.12	954.23	32.382	516.03	848.22	142.19	367.43	973.94	-10.915	690.74	948.01	37.078	617.24	1034	34.235	606.3	952.74	112.22	425.94	819.46	-268.85	466.79	324.42	147.8	323.29	210.07	123.17	395.04	267.24	135.49	246.02	148.49	109.91	546.37	847.16	333.8	446.48	1075.2	338.09	640.06	564.41	-133.52	620.6	73.421	0.93564	389.85	1077.9	17.049	557.26	29.884	-45.119	424.98	1036.5	-149.79
783	3.915	655.29	1572.9	-21.836	9	2014	4	543.77	792.92	381.65	501.27	845.66	390.15	426.3	1073.9	-253.8	680.15	663.05	-129.05	530	1376	200.14	493.12	1235.6	291.95	605.23	952.75	203.8	517.84	951.71	357.91	541.31	1352.6	-157.24	632.23	647.99	-162.72	667.73	337.07	-11.394	635.66	489.61	-115.09	565.99	616.99	230.93	731.51	26.618	-88.349	505.22	1206.5	-228.85	656.97	252.35	-16.981	653.56	166.56	-19.37	661.03	255.59	-78.839	787.68	31.458	4.4738	745.58	36.316	3.0605	507.51	622.43	245.26	625.97	958.73	-140.46	615.6	955.74	31.67	613.88	69.453	-83.329	489.73	1563.6	92.15	673.64	1217.5	34.459	486.88	448.05	224.36	609.83	1334.5	25.292	499.11	536.3	231.38	440.73	942.24	-290.47	377.38	839.02	-315.67	389.61	1311.5	127.87	384.06	976.22	-77.614	303.48	46.551	106.28	283.72	40.198	191.46	395.68	781.3	-318.81	528.02	703.35	256.6	394.97	286.6	208.2	166.42	163.75	144.5	624.82	729.25	-188.36	447.85	1410.3	30.97	226	153.81	192.55	646.08	1579.5	72.66	502.89	1554.1	-42.844	338	28.134	114.91	359.58	972.86	55.34	535	853.65	-92.466	493.71	965.14	10.267	615.6	955.74	31.67	520.9	849.58	141.63	371.82	974.54	-11.137	695.24	949.8	36.364	621.45	1035.5	33.407	610.79	954.35	111.51	432.51	819.59	-268.82	475.19	324.95	149.16	330.3	212.48	124	402.74	268.71	136.58	252.28	151.92	110.46	547.85	847.65	331.91	449.36	1076.3	336.48	642.07	564.69	-134.36	620.61	73.59	0.76876	394.2	1078.6	16.501	557.21	29.867	-45.293	430.21	1037.1	-150.61
784	3.92	659.96	1573.4	-22.922	9	2014	4	544.82	793.23	379.57	502.73	846.39	388.32	432.19	1074.1	-254.76	682.87	662.95	-130.26	533.85	1377.1	198.9	496.61	1236.9	290.89	609.68	954.43	203.2	519.98	952.42	356.2	545.83	1353.4	-158.24	634.62	648.19	-163.62	668.86	337.02	-12.363	636.53	489.65	-115.97	573.19	618.22	231.68	731.48	26.604	-88.453	510.78	1207	-229.77	657.67	252.35	-17.703	653.9	166.53	-19.799	661.38	255.43	-79.584	787.62	31.563	4.3551	745.5	36.398	2.9598	514.61	622.99	245.95	630.38	959.99	-141.1	620.03	957.21	31.052	613.85	69.398	-83.508	494.21	1564.5	90.848	677.92	1218.8	33.189	496.15	448.63	225.53	614.07	1335.4	24.234	507.38	536.63	232.32	447.31	942.35	-290.96	384.6	838.78	-316.27	393.65	1312.5	126.46	388.38	976.94	-77.781	307.93	48.096	107.33	287.91	42.672	192.17	403.07	781.06	-318.96	533.88	704.29	257	402.65	288.35	209.07	173.16	168.86	144.63	627.83	729.4	-189.51	451.96	1411.1	29.582	232.37	157.77	192.86	650.62	1580.1	71.549	507.55	1554.9	-44.111	341.68	28.388	116.19	363.96	973.32	55.091	539.76	854.67	-92.947	498.1	966.17	9.8534	620.03	957.21	31.052	525.68	850.89	141.18	376.17	975.13	-11.345	699.69	951.54	35.75	625.61	1037	32.676	615.23	955.92	110.9	439.22	819.7	-268.83	483.66	325.58	150.49	337.5	214.85	124.78	410.58	270.21	137.64	258.8	155.23	110.94	549.3	848.13	330	452.23	1077.5	334.92	643.9	564.91	-135.11	620.62	73.74	0.63554	398.53	1079.2	15.979	557.16	29.847	-45.441	435.37	1037.7	-151.46
785	3.925	664.6	1573.9	-23.972	9	2014	4	545.87	793.53	377.46	504.2	847.1	386.5	438.09	1074.3	-255.75	685.43	662.79	-131.42	537.65	1378.3	197.71	500.07	1238.3	289.89	614.06	956.07	202.74	522.1	953.12	354.51	550.32	1354.1	-159.22	636.85	648.33	-164.45	669.88	336.97	-13.279	637.26	489.67	-116.79	580.35	619.52	232.41	731.45	26.592	-88.541	516.33	1207.5	-230.69	658.3	252.35	-18.393	654.24	166.5	-20.218	661.65	255.28	-80.294	787.56	31.662	4.2425	745.42	36.467	2.8689	521.69	623.56	246.62	634.77	961.22	-141.69	624.41	958.64	30.526	613.81	69.347	-83.66	498.68	1565.4	89.593	682.2	1220.1	31.969	505.41	449.29	226.66	618.31	1336.4	23.211	515.63	537.03	233.23	453.96	942.44	-291.46	391.96	838.5	-316.9	397.66	1313.5	125.04	392.68	977.64	-77.943	312.99	49.723	108.56	292.59	45.285	193.04	410.62	780.8	-319.16	539.73	705.23	257.42	410.42	290.13	209.86	180.15	173.63	144.62	630.71	729.48	-190.63	456.05	1411.8	28.199	238.97	161.62	193.1	655.15	1580.7	70.475	512.19	1555.7	-45.332	345.98	28.737	117.75	368.33	973.77	54.857	544.46	855.63	-93.378	502.46	967.17	9.4911	624.41	958.64	30.526	530.38	852.13	140.83	380.51	975.71	-11.543	704.09	953.24	35.235	629.73	1038.5	32.039	619.61	957.45	110.37	446.06	819.81	-268.87	492.2	326.32	151.78	344.91	217.16	125.5	418.56	271.74	138.64	265.6	158.38	111.36	550.74	848.61	328.07	455.09	1078.7	333.41	645.56	565.09	-135.78	620.64	73.871	0.53578	402.83	1079.8	15.479	557.1	29.825	-45.563	440.45	1038.2	-152.36
